<?xml version="1.0" encoding="UTF-8" standalone="no"?>
<!-- Created with Inkscape (http://www.inkscape.org/) -->

<svg
   width="58.403259mm"
   height="11.55932mm"
   viewBox="0 0 58.403259 11.55932"
   version="1.1"
   id="svg618"
   inkscape:version="1.2.2 (b0a8486541, 2022-12-01)"
   sodipodi:docname="logo.svg"
   xmlns:inkscape="http://www.inkscape.org/namespaces/inkscape"
   xmlns:sodipodi="http://sodipodi.sourceforge.net/DTD/sodipodi-0.dtd"
   xmlns:xlink="http://www.w3.org/1999/xlink"
   xmlns="http://www.w3.org/2000/svg"
   xmlns:svg="http://www.w3.org/2000/svg"
   xmlns:rdf="http://www.w3.org/1999/02/22-rdf-syntax-ns#"
   xmlns:cc="http://creativecommons.org/ns#"
   xmlns:dc="http://purl.org/dc/elements/1.1/"
   xmlns:sketch="http://www.bohemiancoding.com/sketch/ns">
  <title
     id="title935">logo</title>
  <sodipodi:namedview
     id="namedview620"
     pagecolor="#ffffff"
     bordercolor="#000000"
     borderopacity="0.25"
     inkscape:showpageshadow="2"
     inkscape:pageopacity="0.0"
     inkscape:pagecheckerboard="0"
     inkscape:deskcolor="#d1d1d1"
     inkscape:document-units="mm"
     showgrid="false"
     inkscape:zoom="3.9408307"
     inkscape:cx="100.86706"
     inkscape:cy="22.076564"
     inkscape:window-width="1920"
     inkscape:window-height="1011"
     inkscape:window-x="0"
     inkscape:window-y="0"
     inkscape:window-maximized="1"
     inkscape:current-layer="Main-Navigation" />
  <defs
     id="defs615">
    <linearGradient
       x1="-3.8814785"
       y1="-1.4417742"
       x2="2.376838"
       y2="4.3040576"
       id="linearGradient-2">
      <stop
         stop-color="#C06FBB"
         offset="0%"
         id="stop647" />
      <stop
         stop-color="#6E4D9B"
         offset="100%"
         id="stop649" />
    </linearGradient>
    <linearGradient
       x1="0.72945487"
       y1="0.84424078"
       x2="-0.97051787"
       y2="-1.4769659"
       id="linearGradient-3">
      <stop
         stop-color="#6E4D9B"
         offset="0%"
         id="stop652" />
      <stop
         stop-color="#77327A"
         offset="14%"
         id="stop654" />
      <stop
         stop-color="#B31777"
         offset="29%"
         id="stop656" />
      <stop
         stop-color="#CD0F7E"
         offset="84%"
         id="stop658" />
      <stop
         stop-color="#ED2C89"
         offset="100%"
         id="stop660" />
    </linearGradient>
    <linearGradient
       x1="-2.838841"
       y1="-6.9359984"
       x2="2.8753741"
       y2="1.0170976"
       id="linearGradient-4">
      <stop
         stop-color="#C06FBB"
         offset="0%"
         id="stop663" />
      <stop
         stop-color="#6E4D9B"
         offset="100%"
         id="stop665" />
    </linearGradient>
    <linearGradient
       x1="-8.2118626"
       y1="-4.6904783"
       x2="1.0198514"
       y2="2.88236"
       id="linearGradient-5">
      <stop
         stop-color="#C06FBB"
         offset="0%"
         id="stop668" />
      <stop
         stop-color="#6E4D9B"
         offset="100%"
         id="stop670" />
    </linearGradient>
    <linearGradient
       x1="-1.4035938"
       y1="-2.3092573"
       x2="4.1901231"
       y2="2.6197674"
       id="linearGradient-6">
      <stop
         stop-color="#C06FBB"
         offset="0%"
         id="stop673" />
      <stop
         stop-color="#6E4D9B"
         offset="100%"
         id="stop675" />
    </linearGradient>
    <linearGradient
       x1="1.9108371"
       y1="2.539525"
       x2="0.20357703"
       y2="0.20402928"
       id="linearGradient-7">
      <stop
         stop-color="#6E4D9B"
         offset="0%"
         id="stop678" />
      <stop
         stop-color="#77327A"
         offset="14%"
         id="stop680" />
      <stop
         stop-color="#B31777"
         offset="29%"
         id="stop682" />
      <stop
         stop-color="#CD0F7E"
         offset="84%"
         id="stop684" />
      <stop
         stop-color="#ED2C89"
         offset="100%"
         id="stop686" />
    </linearGradient>
    <linearGradient
       x1="-3.88094"
       y1="-1.7385005"
       x2="2.3767481"
       y2="5.1899023"
       id="linearGradient-8">
      <stop
         stop-color="#C06FBB"
         offset="0%"
         id="stop689" />
      <stop
         stop-color="#6E4D9B"
         offset="100%"
         id="stop691" />
    </linearGradient>
    <linearGradient
       x1="0.11188456"
       y1="0.89652598"
       x2="0.90145129"
       y2="0.11577398"
       id="linearGradient-9">
      <stop
         stop-color="#6E4D9B"
         offset="0%"
         id="stop694" />
      <stop
         stop-color="#77327A"
         offset="14%"
         id="stop696" />
      <stop
         stop-color="#B31777"
         offset="53%"
         id="stop698" />
      <stop
         stop-color="#CD0F7E"
         offset="79%"
         id="stop700" />
      <stop
         stop-color="#ED2C89"
         offset="100%"
         id="stop702" />
    </linearGradient>
    <linearGradient
       inkscape:collect="always"
       xlink:href="#linearGradient-2"
       id="linearGradient901"
       x1="-31.824329"
       y1="-11.74135"
       x2="19.682344"
       y2="35.547516"
       gradientTransform="scale(0.95818129,1.0436438)"
       gradientUnits="userSpaceOnUse" />
    <linearGradient
       inkscape:collect="always"
       xlink:href="#linearGradient-2"
       id="linearGradient903"
       x1="-31.824329"
       y1="-11.74135"
       x2="19.682344"
       y2="35.547516"
       gradientTransform="scale(0.95818129,1.0436438)"
       gradientUnits="userSpaceOnUse" />
    <linearGradient
       inkscape:collect="always"
       xlink:href="#linearGradient-3"
       id="linearGradient905"
       x1="12.021662"
       y1="13.921842"
       x2="-15.715923"
       y2="-23.952099"
       gradientTransform="scale(0.9622634,1.0392165)"
       gradientUnits="userSpaceOnUse" />
    <linearGradient
       inkscape:collect="always"
       xlink:href="#linearGradient-3"
       id="linearGradient907"
       x1="12.021662"
       y1="13.921842"
       x2="-15.715923"
       y2="-23.952099"
       gradientTransform="scale(0.9622634,1.0392165)"
       gradientUnits="userSpaceOnUse" />
    <linearGradient
       inkscape:collect="always"
       xlink:href="#linearGradient-4"
       id="linearGradient909"
       x1="-23.389809"
       y1="-57.288876"
       x2="23.931435"
       y2="8.5732574"
       gradientTransform="scale(1.0429298,0.95883734)"
       gradientUnits="userSpaceOnUse" />
    <linearGradient
       inkscape:collect="always"
       xlink:href="#linearGradient-4"
       id="linearGradient911"
       x1="-23.389809"
       y1="-57.288876"
       x2="23.931435"
       y2="8.5732574"
       gradientTransform="scale(1.0429298,0.95883734)"
       gradientUnits="userSpaceOnUse" />
    <linearGradient
       inkscape:collect="always"
       xlink:href="#linearGradient-5"
       id="linearGradient913"
       x1="-53.331329"
       y1="-30.517021"
       x2="6.7709589"
       y2="18.785299"
       gradientTransform="scale(0.99897855,1.0010225)"
       gradientUnits="userSpaceOnUse" />
    <linearGradient
       inkscape:collect="always"
       xlink:href="#linearGradient-5"
       id="linearGradient915"
       x1="-53.331329"
       y1="-30.517021"
       x2="6.7709589"
       y2="18.785299"
       gradientTransform="scale(0.99897855,1.0010225)"
       gradientUnits="userSpaceOnUse" />
    <linearGradient
       inkscape:collect="always"
       xlink:href="#linearGradient-6"
       id="linearGradient917"
       x1="-14.029168"
       y1="-23.11072"
       x2="41.998405"
       y2="26.25919"
       gradientTransform="scale(1.000348,0.99965212)"
       gradientUnits="userSpaceOnUse" />
    <linearGradient
       inkscape:collect="always"
       xlink:href="#linearGradient-6"
       id="linearGradient919"
       x1="-14.029168"
       y1="-23.11072"
       x2="41.998405"
       y2="26.25919"
       gradientTransform="scale(1.000348,0.99965212)"
       gradientUnits="userSpaceOnUse" />
    <linearGradient
       inkscape:collect="always"
       xlink:href="#linearGradient-7"
       id="linearGradient921"
       x1="31.177437"
       y1="41.441898"
       x2="3.3699646"
       y2="3.4018638"
       gradientTransform="scale(0.96253957,1.0389183)"
       gradientUnits="userSpaceOnUse" />
    <linearGradient
       inkscape:collect="always"
       xlink:href="#linearGradient-7"
       id="linearGradient923"
       x1="31.177437"
       y1="41.441898"
       x2="3.3699646"
       y2="3.4018638"
       gradientTransform="scale(0.96253957,1.0389183)"
       gradientUnits="userSpaceOnUse" />
    <linearGradient
       inkscape:collect="always"
       xlink:href="#linearGradient-8"
       id="linearGradient925"
       x1="-31.904831"
       y1="-14.257624"
       x2="19.599258"
       y2="42.766804"
       gradientTransform="scale(0.95822942,1.0435914)"
       gradientUnits="userSpaceOnUse" />
    <linearGradient
       inkscape:collect="always"
       xlink:href="#linearGradient-8"
       id="linearGradient927"
       x1="-31.904831"
       y1="-14.257624"
       x2="19.599258"
       y2="42.766804"
       gradientTransform="scale(0.95822942,1.0435914)"
       gradientUnits="userSpaceOnUse" />
    <linearGradient
       inkscape:collect="always"
       xlink:href="#linearGradient-9"
       id="linearGradient929"
       x1="4.3007736"
       y1="34.409847"
       x2="34.534088"
       y2="4.5140605"
       gradientTransform="scale(1.0020396,0.99796453)"
       gradientUnits="userSpaceOnUse" />
    <linearGradient
       inkscape:collect="always"
       xlink:href="#linearGradient-9"
       id="linearGradient931"
       x1="4.3007736"
       y1="34.409847"
       x2="34.534088"
       y2="4.5140605"
       gradientTransform="scale(1.0020396,0.99796453)"
       gradientUnits="userSpaceOnUse" />
  </defs>
  <g
     inkscape:label="Layer 1"
     inkscape:groupmode="layer"
     id="layer1"
     transform="translate(-30.742208,-75.120505)">
    <!-- Generator: Sketch 3.4.4 (17249) - http://www.bohemiancoding.com/sketch -->
    <title
       id="title622">logo</title>
    <desc
       id="desc624">Created with Sketch.</desc>
    <g
       id="Main-Navigation"
       stroke="none"
       stroke-width="1"
       fill="none"
       fill-rule="evenodd"
       sketch:type="MSPage"
       transform="matrix(0.26458333,0,0,0.26458333,30.530082,74.928574)">
      <g
         id="Main-Navigation---Home"
         sketch:type="MSArtboardGroup"
         transform="translate(-34,-17)">
        <g
           id="Main-Nav"
           sketch:type="MSLayerGroup">
          <g
             id="logo"
             transform="translate(30,14)"
             sketch:type="MSShapeGroup">
            <g
               id="Aurelia_Logo_Color_RGB">
              <g
                 id="Full-Logo"
                 transform="translate(0.13196,0.021427)">
                <g
                   id="Aurelia"
                   transform="translate(50.929505,11.290297)">
                  <g
                     id="A"
                     transform="translate(0.076673,8.413465)"
                     fill="#ed2c88">
                    <path
                       d="m 8.7952475,16.540356 c 0.1156436,-4.75e-4 0.2328713,-0.0027 0.3485149,-0.0078 0.2455445,-0.01093 0.4895049,-0.03327 0.7334653,-0.06733 0.7081193,-0.09933 1.4019803,-0.297663 2.0562373,-0.588673 0.809505,-0.359921 1.555644,-0.860356 2.197228,-1.471525 0.605149,-0.577901 1.116832,-1.253861 1.508119,-1.994614 0.331089,-0.628277 0.575049,-1.302019 0.722376,-1.997148 0.17901,-0.8497426 0.213861,-1.7300595 0.104555,-2.5915248 C 16.364356,7.0327129 16.142574,6.2604356 15.805149,5.5396436 15.418614,4.7095446 14.881584,3.9502574 14.230495,3.3064555 13.544555,2.6292277 12.733465,2.0811089 11.847921,1.7001188 11.367921,1.4935445 10.865743,1.3360792 10.354059,1.2313663 9.8740594,1.1331485 9.3845545,1.0810297 8.8950495,1.0748515 8.4182178,1.0688317 7.9413861,1.105901 7.4724752,1.1866931 6.940198,1.2784158 6.4174257,1.4265346 5.9152475,1.6278812 5.0344554,1.9813069 4.2217822,2.4991683 3.5263366,3.1458218 2.8451485,3.7801188 2.279604,4.5368713 1.8645545,5.3706139 1.5128713,6.0807921 1.270495,6.8449901 1.150099,7.6289901 1.0170297,8.5040792 1.0328713,9.402297 1.2007921,10.271842 c 0.1362376,0.714138 0.3754455,1.408316 0.7065346,2.055604 0.3817822,0.745663 0.8855446,1.427801 1.4859406,2.013148 0.6209901,0.607683 1.3449505,1.109703 2.1338614,1.477545 0.6320792,0.295287 1.3053465,0.503762 1.9928713,0.617821 0.2407921,0.03992 0.4847525,0.06844 0.7287129,0.08539 0.1314851,0.0092 0.2629703,0.01457 0.3960396,0.01759 0.050693,7.92e-4 0.099802,0.0013 0.150495,0.0014 z m 8.0586135,-4.340752 c -0.08396,0.199287 -0.175841,0.395406 -0.274059,0.587881 -0.446733,0.873822 -1.042376,1.670495 -1.753663,2.347881 -0.698614,0.666456 -1.508119,1.216476 -2.385743,1.619644 -0.73505,0.337426 -1.51604,0.571564 -2.314455,0.693703 -0.2740598,0.04182 -0.5497034,0.07065 -0.8269311,0.08634 -0.129901,0.0074 -0.2613861,0.01157 -0.3912871,0.01362 -0.03802,4.75e-4 -0.07604,6.34e-4 -0.1124753,7.92e-4 -0.1314851,-4.75e-4 -0.2629703,-0.0029 -0.3944554,-0.0087 -0.2772277,-0.01236 -0.5528713,-0.0377 -0.8285149,-0.07604 C 6.7706931,17.352396 5.9849505,17.127762 5.2451485,16.798733 4.3469307,16.398891 3.5168317,15.84602 2.8007921,15.171485 2.0736634,14.486178 1.4653465,13.676832 1.0091089,12.787485 0.64158416,12.071287 0.37544555,11.304555 0.21861386,10.515168 0.03168317,9.5703762 0.00316832,8.5945347 0.12990099,7.6399208 0.24712871,6.7662574 0.49584158,5.9112871 0.86970297,5.1127129 1.3148515,4.1585743 1.9342574,3.287604 2.6883168,2.5519208 3.4661386,1.7907327 4.3881188,1.1767129 5.3908911,0.75231683 5.92,0.52863366 6.4712871,0.35770297 7.0336634,0.24269307 7.5944554,0.128 8.1663366,0.06875248 8.7382178,0.06526733 c 0.5734654,-0.0036436 1.1469307,0.04831683 1.7108912,0.15619802 0.56396,0.10819802 1.118416,0.27247524 1.650693,0.48982178 1.009109,0.41235647 1.937426,1.01560397 2.726337,1.76776237 0.749307,0.7139802 1.370297,1.5605545 1.82495,2.4901386 0.07129,0.1466931 0.139406,0.2952871 0.202772,0.4457822 V 0.09441584 H 17.84396 V 17.520158 h -0.990099 z"
                       id="Shape" />
                  </g>
                  <g
                     id="U"
                     transform="translate(20.353901,8.413465)"
                     fill="#cd0f7e">
                    <path
                       d="m 16.53703,12.818851 c -0.365941,0.704634 -0.825347,1.360159 -1.365545,1.942654 -0.46099,0.49901 -0.982178,0.944158 -1.546139,1.323089 -0.614653,0.412198 -1.283168,0.745347 -1.981782,0.987881 -0.579802,0.201188 -1.181782,0.339802 -1.7916828,0.413466 -0.2027723,0.02455 -0.4039604,0.04182 -0.6083168,0.05212 -0.1124753,0.0057 -0.2233664,0.0089 -0.3358416,0.01061 -0.03802,4.75e-4 -0.07604,6.34e-4 -0.1124753,7.92e-4 -0.1140594,-3.17e-4 -0.2249505,-0.0022 -0.3390099,-0.0065 -0.2407921,-0.009 -0.4815841,-0.02804 -0.7207921,-0.05687 C 7.0336634,17.401505 6.3429703,17.231842 5.6807921,16.981703 4.6891089,16.606574 3.7671287,16.050535 2.9718812,15.349228 2.4079208,14.850535 1.9057426,14.278812 1.4875247,13.65196 1.0344554,12.974574 0.6780198,12.23303 0.43564356,11.455366 0.25663366,10.88301 0.13940594,10.291802 0.08554455,9.6947327 0.05861386,9.3986535 0.04910891,9.1016238 0.05227723,8.8044356 V 0.09441584 H 1.0613861 v 8.71572276 0.1043961 0.099485 c 0.00158,0.09901 0.00317,0.1978614 0.00951,0.2967129 0.011089,0.2273267 0.033267,0.4541782 0.06495,0.6796039 0.091881,0.6430105 0.2677228,1.2736635 0.5243564,1.8710495 0.359604,0.843406 0.8760396,1.617901 1.509703,2.280079 0.6257426,0.652515 1.3655445,1.194297 2.1750495,1.594773 0.7144554,0.352792 1.4827723,0.594851 2.270099,0.71493 0.8110891,0.123565 1.6427723,0.119287 2.452278,-0.01521 0.638416,-0.106297 1.264158,-0.294336 1.856633,-0.559049 0.847525,-0.378931 1.623763,-0.913743 2.282773,-1.568 0.627326,-0.623525 1.14693,-1.353663 1.533465,-2.150178 0.318416,-0.658377 0.543365,-1.361109 0.668515,-2.081584 0.04911,-0.27406 0.08238,-0.5504956 0.101386,-0.8278818 0.0079,-0.1327524 0.01426,-0.2655049 0.01743,-0.3985742 V 8.803166 l 0.0095,-8.70875246 h 0.990099 V 17.520158 H 16.53703 Z"
                       id="path709" />
                  </g>
                  <g
                     id="R"
                     transform="translate(40.314297,8.413465)"
                     fill="#b31776">
                    <path
                       d="M 1.0645545,8.4155248 1.0423762,17.520158 H 0.05227723 V 0.09441584 H 1.0423762 V 4.5552475 C 1.1659406,4.3296634 1.3005941,4.1097822 1.4431683,3.896396 1.8328713,3.3169109 2.2954455,2.7863762 2.8134654,2.3188911 3.5706931,1.6361188 4.4483168,1.0891089 5.3940594,0.70669307 6.0895049,0.42518812 6.8213861,0.23287129 7.5659406,0.13338614 7.8225743,0.09932673 8.0792079,0.0760396 8.3374257,0.06352475 8.4863366,0.05639604 8.6352475,0.05322772 8.7841584,0.05275248 l 0.00317,1.03366332 c -0.034851,1.585e-4 -0.068119,3.169e-4 -0.1013861,6.337e-4 -0.033267,4.752e-4 -0.066535,0.00111 -0.099802,0.0019 -0.1156435,0.00301 -0.2312871,0.00792 -0.3469307,0.015683 C 7.9952475,1.1207921 7.7528713,1.1478812 7.5120792,1.185901 6.8736634,1.2868119 6.2479208,1.4655049 5.6522772,1.718495 4.8269307,2.0700198 4.0617822,2.5650693 3.4059406,3.1781386 2.9465346,3.6071287 2.5409901,4.0934653 2.2035644,4.6232079 1.8566337,5.1667327 1.5809901,5.756198 1.3893069,6.371802 1.2530693,6.8096634 1.159604,7.2603564 1.1089109,7.7161188 c -0.026931,0.232396 -0.039604,0.4657426 -0.044356,0.699406 z m 105.1033155,0.9332041 -0.0222,9.1046331 h -0.9901 V 1.0276195 h 0.9901 v 4.4608317 c 0.12356,-0.2255841 0.25822,-0.4454653 0.40079,-0.6588515 0.3897,-0.5794851 0.85228,-1.1100198 1.3703,-1.5775049 0.75722,-0.6827723 1.63485,-1.2297822 2.58059,-1.6121981 0.69545,-0.2815049 1.42733,-0.4738218 2.17188,-0.5733069 0.25664,-0.034059 0.51327,-0.057347 0.77149,-0.069861 0.14891,-0.00713 0.29782,-0.010297 0.44673,-0.010772 l 0.003,1.0336634 c -0.0349,1.585e-4 -0.0681,3.169e-4 -0.10139,6.337e-4 -0.0333,4.752e-4 -0.0665,0.00111 -0.0998,0.0019 -0.11564,0.00301 -0.23128,0.00792 -0.34693,0.015683 -0.24396,0.01616 -0.48634,0.043249 -0.72713,0.081268 -0.63841,0.1009109 -1.26416,0.2796039 -1.8598,0.532594 -0.82535,0.3515248 -1.59049,0.8465743 -2.24634,1.4596436 -0.4594,0.4289901 -0.86495,0.9153266 -1.20237,1.4450693 -0.34693,0.5435253 -0.62258,1.1329902 -0.81426,1.7485942 -0.13624,0.437861 -0.2297,0.8885541 -0.2804,1.3443171 -0.0269,0.2323959 0.18935,0.7010178 -0.0444,0.6994059 z"
                       id="path712"
                       sodipodi:nodetypes="cccccccccccccccccccccccccccccccccccccccccccccsc" />
                  </g>
                  <g
                     id="E"
                     transform="translate(48.393505,8.413465)"
                     fill="#9b2073">
                    <path
                       d="M 9.3750495,17.55105 8.8158416,17.54935 C 8.7794056,17.548875 8.7413856,17.548399 8.7033663,17.54795 8.5908911,17.545346 8.48,17.541386 8.3675247,17.535049 8.1283168,17.521426 7.8891089,17.49798 7.6514851,17.464713 6.9893069,17.37204 6.339802,17.203327 5.7172277,16.962376 4.6827723,16.562059 3.7291089,15.962614 2.9180198,15.207287 2.1211881,14.466376 1.4653465,13.577347 0.99326733,12.597545 0.64316832,11.870733 0.39445545,11.095446 0.25821782,10.300356 0.09346535,9.3508119 0.08871287,8.3738614 0.23920792,7.4224158 0.40079208,6.4148911 0.73980198,5.4377822 1.2372277,4.5473267 1.7837624,3.5687921 2.520396,2.6984555 3.3932673,1.9952475 3.8574257,1.6207525 4.3611881,1.2939406 4.8918812,1.0217822 5.3829703,0.77021782 5.8978218,0.56554455 6.4285148,0.41156436 7.1857426,0.19152475 7.9714852,0.07572277 8.760396,0.06574257 c 0.8807921,-0.0110891 1.763168,0.10962377 2.609109,0.36102971 0.948911,0.28261386 1.848713,0.72887132 2.650297,1.31295052 0.847525,0.6187723 1.582574,1.3899406 2.160792,2.2669307 0.378614,0.5756831 0.689109,1.1963564 0.92198,1.8450693 0.239208,0.6650297 0.39604,1.3592079 0.467327,2.0624158 0.02218,0.2219406 0.03644,0.4446733 0.04277,0.6677228 0,0.056396 0.0016,0.1126337 0.0016,0.1688713 0.0016,0.036594 0.0016,0.075089 -0.0016,0.1113663 -0.0032,0.018852 -0.0063,0.037545 -0.0095,0.056079 -0.01267,0.055287 -0.03485,0.1085149 -0.06495,0.1565149 -0.0602,0.096634 -0.153664,0.1709307 -0.261386,0.2086336 -0.03485,0.012515 -0.07287,0.021069 -0.109307,0.025347 -0.01901,0.00206 -0.03802,0.00206 -0.05703,0.00317 H 9.0819802 V 8.3027327 H 16.589307 C 16.571881,8.0286733 16.540198,7.7558812 16.492673,7.4853069 16.402376,6.9527129 16.253465,6.4296238 16.052277,5.9280792 15.762376,5.2053861 15.361584,4.528 14.868911,3.9244356 14.311287,3.2400792 13.636436,2.6518812 12.882376,2.1934257 12.264554,1.8184554 11.59604,1.5307723 10.897426,1.3419406 10.062574,1.1158812 9.189703,1.0328713 8.3263366,1.0932277 7.9065346,1.1225346 7.4883168,1.185901 7.079604,1.2831683 6.6328713,1.3891485 6.1972277,1.5352079 5.7758416,1.7189703 4.8934653,2.1048713 4.0855445,2.657901 3.4043564,3.3390891 3.0875248,3.6565545 2.7976238,4.0015842 2.5394059,4.3689505 2.2162376,4.8283564 1.9437624,5.3226139 1.7283168,5.8407921 1.5033663,6.3838416 1.340198,6.9528713 1.2435644,7.5331485 1.1659406,8.0033267 1.1326733,8.4806337 1.1405941,8.9573069 c 0.011089,0.5371881 0.07604,1.0732671 0.1964356,1.5968321 0.1394059,0.599445 0.350099,1.182099 0.6273267,1.731485 0.3009901,0.596119 0.679604,1.152633 1.1215842,1.65196 0.4118812,0.463208 0.8776238,0.87699 1.3861386,1.229782 0.410297,0.28404 0.8475248,0.528476 1.3037624,0.728238 0.48,0.209426 0.9790099,0.369742 1.490693,0.477782 0.3326733,0.07034 0.6716832,0.118495 1.0106931,0.144317 0.1821782,0.01378 0.3627723,0.02075 0.5449505,0.02249 l 0.5560396,0.0017 c 0,0.336316 -0.00158,0.672633 -0.00317,1.009109 z m 108.4674705,0.09029 -0.55921,-0.0017 c -0.0364,-4.75e-4 -0.0745,-9.51e-4 -0.11247,-0.0014 -0.11248,-0.0026 -0.22337,-0.0066 -0.33584,-0.0129 -0.23921,-0.01362 -0.47842,-0.03707 -0.71604,-0.07034 -0.66218,-0.09267 -1.31169,-0.261379 -1.93426,-0.50233 -1.03446,-0.400317 -1.98812,-0.999762 -2.79921,-1.755089 -0.79683,-0.740911 -1.45267,-1.62994 -1.92475,-2.609742 -0.3501,-0.726812 -0.59881,-1.502099 -0.73505,-2.297189 -0.16475,-0.949544 -0.1695,-1.9264945 -0.019,-2.8779401 0.16158,-1.0075247 0.50059,-1.9846336 0.99802,-2.8750891 0.54653,-0.9785346 1.28317,-1.8488712 2.15604,-2.5520792 0.46416,-0.3744951 0.96792,-0.701307 1.49861,-0.9734654 0.49109,-0.25156434 1.00594,-0.45623762 1.53664,-0.61021781 0.75723,-0.22003961 1.54297,-0.33584159 2.33188,-0.34582179 0.88079,-0.0110891 1.76317,0.10962377 2.60911,0.36102971 0.94891,0.28261387 1.84871,0.72887129 2.65029,1.31295049 0.84753,0.6187724 1.58258,1.3899407 2.1608,2.2669308 0.37861,0.5756831 0.68911,1.1963564 0.92198,1.8450693 0.2392,0.6650297 0.39604,1.3592079 0.46732,2.0624158 0.0222,0.2219406 0.0364,0.4446733 0.0428,0.6677228 0,0.056396 0.002,0.1126337 0.002,0.1688713 0.002,0.036594 0.002,0.075089 -0.002,0.1113663 -0.003,0.018852 -0.006,0.037545 -0.01,0.056079 -0.0127,0.055287 -0.0348,0.1085149 -0.0649,0.1565149 -0.0602,0.096634 -0.15366,0.1709307 -0.26138,0.2086336 -0.0348,0.012515 -0.0729,0.021069 -0.10931,0.025347 -0.019,0.00206 -0.038,0.00206 -0.057,0.00317 h -8.02852 V 8.3930268 h 7.50733 C 125.039,8.1189674 125.0073,7.8461753 124.9598,7.575601 124.8695,7.043007 124.72059,6.5199179 124.5194,6.0183733 124.2295,5.2956802 123.82871,4.6182941 123.33603,4.0147297 122.77841,3.3303733 122.10356,2.7421753 121.3495,2.2837198 120.73168,1.9087494 120.06316,1.6210663 119.36455,1.4322346 118.5297,1.2061752 117.65683,1.1231653 116.79346,1.1835217 c -0.4198,0.029307 -0.83802,0.092673 -1.24673,0.1899406 -0.44674,0.1059802 -0.88238,0.2520396 -1.30377,0.435802 -0.88237,0.3859011 -1.69029,0.9389308 -2.37148,1.6201189 -0.31683,0.3174654 -0.60673,0.6624951 -0.86495,1.0298614 -0.32317,0.4594059 -0.59565,0.9536634 -0.81109,1.4718416 -0.22495,0.5430495 -0.38812,1.1120792 -0.48475,1.6923564 -0.0776,0.4701782 -0.11089,0.9474852 -0.10297,1.4241584 0.0111,0.5371881 0.076,1.073267 0.19643,1.596832 0.13941,0.599445 0.3501,1.182099 0.62733,1.731485 0.30099,0.596119 0.6796,1.152633 1.12158,1.65196 0.41188,0.463208 0.87763,0.87699 1.38614,1.229782 0.4103,0.28404 0.84753,0.528476 1.30376,0.728238 0.48,0.209426 0.97901,0.369742 1.4907,0.477782 0.33267,0.07034 0.67168,0.118495 1.01069,0.144317 0.18218,0.01378 0.36277,0.02075 0.54495,0.02249 l 0.55604,0.0017 c 0,0.336316 -0.197,0.734043 -0.003,1.009109 z"
                       id="path715"
                       sodipodi:nodetypes="ccccssccccccccscccccccccccccccccscccsccccccccccccccccscccccssccccccccscccccccccccccccccscccsccccccccccccccccsc" />
                  </g>
                  <g
                     id="L"
                     transform="translate(68.512317,0.017426)"
                     fill="#8f2475">
                    <path
                       d="M 5.150099,25.945505 C 4.9885148,25.94503 4.8269307,25.940119 4.6653465,25.929188 4.3247525,25.906218 3.9841584,25.857743 3.6514852,25.780277 3.3188119,25.702653 2.9908911,25.595723 2.6788119,25.456634 2.2922772,25.284911 1.9263366,25.064238 1.6015842,24.794772 1.430495,24.654891 1.2720792,24.50202 1.1263366,24.337584 0.94257426,24.131485 0.7809901,23.907485 0.64158416,23.669228 0.46732673,23.36998 0.33108911,23.049188 0.23445545,22.716832 0.16316832,22.469386 0.11247525,22.215762 0.0839604,21.959762 0.06019802,21.74701 0.04910891,21.53299 0.05227723,21.31897 V 0.14067327 H 1.0613861 V 21.325307 21.430495 c 0.00158,0.138614 0.00951,0.277228 0.025347,0.41505 0.025346,0.221782 0.069703,0.441504 0.1362376,0.654574 0.079208,0.25093 0.1869307,0.492673 0.3247525,0.717148 0.1045544,0.17204 0.2265346,0.333783 0.3627722,0.482535 0.1077228,0.118812 0.2249505,0.229386 0.3500991,0.330772 0.1045544,0.08554 0.2154455,0.164753 0.3295049,0.237466 0.098218,0.06257 0.199604,0.120396 0.3025743,0.173465 0.4926732,0.251564 1.0344554,0.395564 1.5825742,0.457663 0.2249505,0.0255 0.4514852,0.03659 0.6764357,0.03723 0,0.336317 -0.00158,0.672634 -0.00158,1.009109 z"
                       id="path718" />
                  </g>
                  <g
                     id="I"
                     transform="translate(75.957861,0.017426)"
                     fill="#78327a">
                    <path
                       d="M 0.14891089,25.916198 V 8.4904555 H 1.1390099 V 25.916198 Z M 0.15366337,2.4706535 V 0.14067327 H 1.1358416 V 2.4706535 Z M 61.177282,27.197156 V 9.7714139 h 0.990099 V 27.197156 Z m 0.0048,-23.4455444 V 1.4216313 h 0.982178 v 2.3299803 z"
                       id="path721"
                       sodipodi:nodetypes="cccccccccccccccccccc" />
                  </g>
                  <g
                     id="A1"
                     transform="translate(79.601426,8.413465)"
                     fill="#6e4d9b">
                    <path
                       d="m 8.7952475,16.540356 c 0.1156436,-4.75e-4 0.2328713,-0.0027 0.3485149,-0.0078 0.2455445,-0.01093 0.4895049,-0.03327 0.7334653,-0.06733 0.7081193,-0.09933 1.4019803,-0.297663 2.0562373,-0.588673 0.738218,-0.328554 1.424159,-0.773861 2.026139,-1.313901 0.668515,-0.60103 1.232475,-1.31802 1.65703,-2.110891 0.342178,-0.64 0.594059,-1.328158 0.744554,-2.038495 0.182178,-0.8657426 0.215446,-1.76301 0.09822,-2.6400001 C 16.354851,6.9855049 16.126733,6.2152871 15.786139,5.4971881 15.393267,4.6694653 14.851485,3.9138218 14.197228,3.2738218 13.506535,2.6005545 12.692277,2.0570297 11.805149,1.6817426 11.337822,1.484198 10.849901,1.3329109 10.354059,1.2313663 9.8566337,1.1298218 9.3512871,1.0775445 8.8443564,1.0743762 8.3374257,1.0712079 7.8289109,1.1169901 7.329901,1.2125148 6.8308911,1.308198 6.3413861,1.4534653 5.8724752,1.6454653 4.9790099,2.010297 4.1568317,2.5441584 3.459802,3.209505 2.7960396,3.8412673 2.2463366,4.5904158 1.8439604,5.4127525 1.4954455,6.1254653 1.2578218,6.8918812 1.1437624,7.6769901 c -0.1251485,0.8597228 -0.1077228,1.7411485 0.05703,2.5946929 0.1425742,0.74503 0.3960396,1.467881 0.7493069,2.138772 0.3912871,0.740753 0.9029703,1.416713 1.509703,1.994614 0.6178218,0.589466 1.3338614,1.076278 2.110099,1.432872 0.6495049,0.298297 1.340198,0.505346 2.0467327,0.613227 0.2423762,0.03707 0.4863366,0.06242 0.730297,0.07636 0.1156436,0.0067 0.2312871,0.0103 0.3469307,0.0122 0.034852,3.17e-4 0.066535,4.75e-4 0.1013861,6.33e-4 z m 8.0586135,-4.340752 c -0.08396,0.199287 -0.175841,0.395406 -0.274059,0.587881 -0.454653,0.889347 -1.064555,1.698693 -1.791683,2.384 -0.71604,0.674535 -1.544555,1.227406 -2.444357,1.627248 -0.739802,0.329029 -1.525544,0.553663 -2.327128,0.66598 -0.2740597,0.03834 -0.5512875,0.06368 -0.8285152,0.07604 -0.1314851,0.0059 -0.2629703,0.0082 -0.3928713,0.0087 -0.1314851,-4.75e-4 -0.2629703,-0.0029 -0.3944554,-0.0087 -0.2772277,-0.01236 -0.5528713,-0.0377 -0.8285149,-0.07604 C 6.7706931,17.352396 5.9849505,17.127762 5.2451485,16.798733 4.3310891,16.391762 3.4867327,15.826218 2.7627723,15.135366 2.0530693,14.45798 1.4574257,13.661307 1.0091089,12.787485 0.63366337,12.055129 0.36435644,11.269703 0.20910891,10.461624 0.03168317,9.5336238 0.00475248,8.5763168 0.12990099,7.6397624 0.24871287,6.7486733 0.50693069,5.8770693 0.89188119,5.0647129 1.3433663,4.1134257 1.9675247,3.2464158 2.7247525,2.5154852 3.5089109,1.7587327 4.4340594,1.150099 5.44,0.73172277 5.9881188,0.50423762 6.5584158,0.3329901 7.139802,0.22146535 7.6847525,0.11706931 8.2392079,0.06510891 8.7952475,0.06510891 c 0.5544555,0 1.1089109,0.0519604 1.6538615,0.15635644 0.581386,0.11152475 1.151683,0.28277227 1.699802,0.51025742 1.00594,0.41837623 1.931089,1.02700993 2.715247,1.78360393 0.744555,0.7185743 1.360792,1.5691089 1.810693,2.5015446 0.06337,0.1311683 0.121981,0.2639208 0.17901,0.398099 V 0.09441584 H 17.84396 V 17.520158 c -0.0016,0.01917 -0.990099,0 -0.990099,0 z m 25.635997,5.343217 c 0,-0.115644 0.232871,-0.0027 0.348515,-0.0078 0.245544,-0.01093 0.489505,-0.03327 0.733465,-0.06733 0.708119,-0.09933 1.40198,-0.297663 2.056237,-0.588673 0.738218,-0.328554 1.424159,-0.773861 2.026139,-1.313901 0.668515,-0.60103 1.232475,-1.31802 1.65703,-2.110891 0.342178,-0.64 0.594059,-1.328158 0.744554,-2.038495 0.182178,-0.865743 0.215446,-1.7630101 0.09822,-2.6400001 -0.104557,-0.787761 -0.332675,-1.557979 -0.673269,-2.276078 -0.392872,-0.827723 -0.934654,-1.583366 -1.588911,-2.223366 -0.690693,-0.673268 -1.504951,-1.216793 -2.392079,-1.59208 -0.467327,-0.197544 -0.955248,-0.348831 -1.45109,-0.450376 -0.497425,-0.101545 -1.002772,-0.153822 -1.509702,-0.15699 -0.506931,-0.0032 -1.015446,0.04261 -1.514456,0.138138 -0.49901,0.09568 -0.988515,0.240951 -1.457425,0.432951 -0.893466,0.364832 -1.715644,0.898693 -2.412674,1.56404 -0.663762,0.631762 -1.213465,1.380911 -1.615841,2.203247 -0.348515,0.712713 -0.586139,1.479129 -0.700198,2.264238 -0.125149,0.859723 -0.107723,1.7411481 0.05703,2.5946931 0.142574,0.74503 0.396039,1.467881 0.749307,2.138772 0.391287,0.740753 0.90297,1.416713 1.509703,1.994614 0.617821,0.589466 1.333861,1.076278 2.110099,1.432872 0.649505,0.298297 1.340198,0.505346 2.046732,0.613227 0.242377,0.03707 0.486337,0.06242 0.730297,0.07636 0.115644,0.0067 0.231287,0.0103 0.346931,0.0122 0.03485,3.17e-4 0.101386,0.03549 0.101386,6.33e-4 z m 8.058613,-4.340752 c -0.08396,0.199287 -0.175841,0.395406 -0.274059,0.587881 -0.454653,0.889347 -1.064555,1.698693 -1.791683,2.384 -0.71604,0.674535 -1.544555,1.227406 -2.444357,1.627248 -0.739802,0.329029 -1.525544,0.553663 -2.327128,0.66598 -0.274059,0.03834 -0.551287,0.06368 -0.828515,0.07604 -0.131485,0.0059 -0.26297,0.0082 -0.392871,0.0087 -0.131485,-4.75e-4 -0.26297,-0.0029 -0.394456,-0.0087 -0.277227,-0.01236 -0.552871,-0.0377 -0.828514,-0.07604 -0.801585,-0.112317 -1.587327,-0.336951 -2.327129,-0.66598 -0.91406,-0.406971 -1.758416,-0.972515 -2.482376,-1.663367 -0.709703,-0.677386 -1.305347,-1.474059 -1.753664,-2.347881 -0.375445,-0.732356 -0.644752,-1.517782 -0.8,-2.325861 -0.177426,-0.928 -0.204356,-1.8853071 -0.07921,-2.8218621 0.118812,-0.891089 0.37703,-1.762693 0.76198,-2.575049 0.451486,-0.951288 1.075644,-1.818297 1.832872,-2.549228 0.784158,-0.756753 1.709307,-1.365386 2.715247,-1.783763 0.548119,-0.227485 1.118416,-0.398732 1.699802,-0.510257 0.544951,-0.104396 1.099406,-0.156356 1.655446,-0.156356 0.554455,0 1.108911,0.05196 1.653861,0.156356 0.581386,0.111525 1.151683,0.282772 1.699802,0.510257 1.00594,0.418377 1.931089,1.02701 2.715247,1.783604 0.744555,0.718575 1.360792,1.569109 1.810693,2.501545 0.06337,0.131168 0.121981,0.263921 0.17901,0.398099 v -5.320554 h 0.990099 V 18.522623 c -0.0016,0.01917 -0.990099,0 -0.990099,0 z"
                       id="path724"
                       sodipodi:nodetypes="scccccccccccsccccccccssccssccccssccccccccccccscccsccccccscccccccccccsccccccccssccssccccssccccccccccccscccscccccc" />
                  </g>
                </g>
                <g
                   id="Icon"
                   transform="rotate(11.283864,3.915021,45.68462)">
                  <g
                     id="Group"
                     transform="rotate(-11.283864,17.839073,-78.73176)"
                     fill="url(#linearGradient-2)"
                     style="fill:url(#linearGradient903)">
                    <path
                       d="M 8.0015873,6.1268935 4.1172294,8.7193698 0.11564361,2.7225357 4.0000016,0.13005946 Z"
                       id="path728"
                       style="fill:url(#linearGradient901)" />
                  </g>
                  <g
                     id="g733"
                     transform="rotate(-11.283864,129.48746,-99.884033)"
                     fill="url(#linearGradient-3)"
                     style="fill:url(#linearGradient907)">
                    <path
                       d="M 9.1789343,1.8875255 15.815769,11.832876 7.9097061,17.108918 1.2728718,7.1634088 0.11500995,5.4285962 8.0212309,0.15255452 Z"
                       id="path731"
                       style="fill:url(#linearGradient905)" />
                  </g>
                  <g
                     id="g737"
                     transform="rotate(-11.283864,167.20194,-62.319851)"
                     fill="url(#linearGradient-4)"
                     style="fill:url(#linearGradient911)">
                    <path
                       d="M 7.3002801,1.8791295 8.7615084,4.0687541 2.7437635,8.0845973 0.12467332,4.1600016 1.4393669,3.2826944 6.1425767,0.14415847 Z"
                       id="path735"
                       style="fill:url(#linearGradient909)" />
                  </g>
                  <g
                     id="g741"
                     transform="rotate(-11.283864,104.37358,-149.21793)"
                     fill="url(#linearGradient-5)"
                     style="fill:url(#linearGradient915)">
                    <path
                       d="M 2.3280801,1.1462975 4.0160016,0.0199604 6.6349333,3.944556 2.7501001,6.5370323 1.2888718,4.3474077 3.4857836,2.8812685 Z M 1.2888718,4.3474077 0.13116837,2.6124367 2.3280801,1.1462975 3.4857836,2.8812685 Z"
                       id="path739"
                       style="fill:url(#linearGradient913)" />
                  </g>
                  <g
                     id="g745"
                     transform="rotate(-11.283864,81.818515,7.6453408)"
                     fill="url(#linearGradient-6)"
                     style="fill:url(#linearGradient919)">
                    <path
                       d="M 5.3459031,9.1545383 4.0313679,10.031846 0.02946536,4.0350115 6.0472103,0.01916832 8.8522808,4.2227343 4.1492294,7.3612703 8.8522808,4.2227343 10.049113,6.0161608 Z"
                       id="path743"
                       style="fill:url(#linearGradient917)" />
                  </g>
                  <g
                     id="g749"
                     transform="rotate(-11.283864,17.140845,-7.8245726)"
                     fill="url(#linearGradient-7)"
                     style="fill:url(#linearGradient923)">
                    <path
                       d="M 14.533075,9.9339446 15.729749,11.727371 7.8235279,17.003413 6.6268541,15.209986 0.05211883,5.3577843 7.9583398,0.08174261 Z"
                       id="path747"
                       style="fill:url(#linearGradient921)" />
                  </g>
                  <g
                     id="g753"
                     transform="rotate(-11.283864,18.188372,-79.173526)"
                     fill="url(#linearGradient-8)"
                     style="fill:url(#linearGradient927)">
                    <path
                       d="M 6.2346163,7.1767157 4.0377046,8.6426965 2.8408724,6.8494285 0.03580199,2.6458624 3.9206352,0.05338616 7.9225378,6.0502202 Z"
                       id="path751"
                       style="fill:url(#linearGradient925)" />
                  </g>
                  <g
                     id="g757"
                     transform="rotate(-11.283864,166.48907,-69.535891)"
                     fill="#714896">
                    <path
                       d="M 1.1714856,5.0176654 0.01362377,3.2826944 4.7168336,0.14415847 5.874537,1.8791295 Z"
                       id="path755" />
                  </g>
                  <g
                     id="g761"
                     transform="rotate(-11.283864,109.98606,-149.77239)"
                     fill="#6f4795">
                    <path
                       d="M 1.2888718,3.2384963 0.13116837,1.5035254 2.3280801,0.03738615 3.4857836,1.7723571 Z"
                       id="path759" />
                  </g>
                  <g
                     id="g765"
                     transform="rotate(-11.283864,100.60546,-15.260416)"
                     fill="#88519f">
                    <path
                       d="M 1.2270896,5.0357248 0.03041585,3.2424567 4.7334672,0.10392083 5.9302994,1.8973473 Z"
                       id="path763" />
                  </g>
                  <g
                     id="g769"
                     transform="rotate(-11.283864,43.300667,-95.4177)"
                     fill="#85509e">
                    <path
                       d="M 1.3446342,3.4149717 0.14780204,1.6217036 2.3448722,0.15556442 3.541546,1.9489909 Z"
                       id="path767" />
                  </g>
                  <g
                     id="g773"
                     transform="rotate(-11.283864,129.48746,-99.884033)"
                     fill="#8d166a">
                    <path
                       d="M 9.1789343,1.8875255 1.2728718,7.1634088 0.11500995,5.4285962 8.0212309,0.15255452 Z"
                       id="path771" />
                  </g>
                  <g
                     id="g777"
                     transform="rotate(-11.283864,63.603846,-45.608557)"
                     fill="#a70d6f">
                    <path
                       d="M 8.038023,0.11215846 9.2346967,1.9055849 1.3284758,7.1816266 0.13180203,5.3882002 Z"
                       id="path775" />
                  </g>
                  <g
                     id="g780"
                     transform="rotate(45,-13.019092,8.7509943)"
                     fill="#9e61ad">
                    <rect
                       id="Rectangle-path"
                       x="2.1353641e-15"
                       y="0"
                       width="2.6884103"
                       height="2.6884103" />
                  </g>
                  <g
                     id="g784"
                     transform="rotate(45,-36.275912,36.979096)"
                     fill="#8053a3">
                    <rect
                       id="rect782"
                       x="2.1353641e-15"
                       y="0"
                       width="2.6884103"
                       height="2.6884103" />
                  </g>
                  <g
                     id="g788"
                     transform="translate(1.822504,1.547653)"
                     fill="url(#linearGradient-9)"
                     style="fill:url(#linearGradient931)">
                    <path
                       d="M 8.3722789,38.293869 0.01663367,29.87565 29.748917,0.0807921 38.38575,8.2819818 Z"
                       id="path786"
                       style="fill:url(#linearGradient929)" />
                  </g>
                </g>
              </g>
            </g>
          </g>
        </g>
        <path
           style="fill:#ff00ff"
           d="m 179.96107,61.414181 17.69832,-42.925 -0.12886,-0.15066"
           id="path1395" />
        <path
           d="m 234.88847,53.147899 c 0.11564,-4.75e-4 0.23287,-0.0027 0.34851,-0.0078 0.24555,-0.01093 0.48951,-0.03327 0.73347,-0.06733 0.70812,-0.09933 1.40198,-0.297663 2.05624,-0.588673 0.8095,-0.359921 1.55564,-0.860356 2.19722,-1.471525 0.60515,-0.577901 1.11683,-1.253861 1.50812,-1.994614 0.33109,-0.628277 0.57505,-1.302019 0.72238,-1.997148 0.17901,-0.849743 0.21386,-1.730059 0.10455,-2.591525 -0.10138,-0.789028 -0.32317,-1.561305 -0.66059,-2.282097 -0.38654,-0.830099 -0.92357,-1.589387 -1.57466,-2.233189 -0.68594,-0.677227 -1.49703,-1.225346 -2.38257,-1.606336 -0.48,-0.206575 -0.98218,-0.36404 -1.49386,-0.468753 -0.48,-0.09822 -0.96951,-0.150336 -1.45901,-0.156515 -0.47683,-0.006 -0.95366,0.03105 -1.42257,0.111842 -0.53228,0.09172 -1.05505,0.239842 -1.55723,0.441188 -0.88079,0.353426 -1.69347,0.871287 -2.38891,1.517941 -0.68119,0.634297 -1.24674,1.391049 -1.66179,2.224792 -0.35168,0.710178 -0.59405,1.474376 -0.71445,2.258376 -0.13307,0.875089 -0.11723,1.773307 0.0507,2.642852 0.13624,0.714138 0.37545,1.408316 0.70654,2.055604 0.38178,0.745663 0.88554,1.427801 1.48594,2.013148 0.62099,0.607683 1.34495,1.109703 2.13386,1.477545 0.63208,0.295287 1.30535,0.503762 1.99287,0.617821 0.24079,0.03992 0.48475,0.06844 0.72871,0.08539 0.13149,0.0092 0.26297,0.01457 0.39604,0.01759 0.0507,7.92e-4 0.0998,0.0013 0.1505,0.0014 z m 8.05861,-4.340752 c -0.084,0.199287 -0.17584,0.395406 -0.27406,0.587881 -0.44673,0.873822 -1.04237,1.670495 -1.75366,2.347881 -0.69862,0.666456 -1.50812,1.216476 -2.38574,1.619644 -0.73505,0.337426 -1.51604,0.571564 -2.31446,0.693703 -0.27406,0.04182 -0.5497,0.07065 -0.82693,0.08634 -0.1299,0.0074 -0.26139,0.01157 -0.39129,0.01362 -0.038,4.75e-4 -0.076,6.34e-4 -0.11247,7.92e-4 -0.13149,-4.75e-4 -0.26297,-0.0029 -0.39446,-0.0087 -0.27723,-0.01236 -0.55287,-0.0377 -0.82851,-0.07604 -0.80159,-0.112329 -1.58733,-0.336963 -2.32713,-0.665992 -0.89822,-0.399842 -1.72832,-0.952713 -2.44436,-1.627248 -0.72713,-0.685307 -1.33544,-1.494653 -1.79168,-2.384 -0.36753,-0.716198 -0.63366,-1.48293 -0.7905,-2.272317 -0.18693,-0.944792 -0.21544,-1.920633 -0.0887,-2.875247 0.11723,-0.873664 0.36594,-1.728634 0.7398,-2.527208 0.44515,-0.954139 1.06456,-1.825109 1.81862,-2.560792 0.77782,-0.761188 1.6998,-1.375208 2.70257,-1.799604 0.52911,-0.223683 1.0804,-0.394614 1.64277,-0.509624 0.5608,-0.114693 1.13268,-0.173941 1.70456,-0.177426 0.57346,-0.0036 1.14693,0.04832 1.71089,0.156198 0.56396,0.108198 1.11841,0.272476 1.65069,0.489822 1.00911,0.412357 1.93743,1.015604 2.72634,1.767763 0.74931,0.71398 1.3703,1.560554 1.82495,2.490138 0.0713,0.146693 0.1394,0.295287 0.20277,0.445782 v -5.320554 h 0.9901 v 17.425742 h -0.9901 z"
           id="Shape-6"
           inkscape:highlight-color="#ee3bc9" />
      </g>
      <text
         xml:space="preserve"
         style="fill:#000000"
         x="178.75963"
         y="20.755707"
         id="text993"><tspan
           sodipodi:role="line"
           id="tspan991"
           x="178.75963"
           y="20.755707" /></text>
    </g>
  </g>
  <metadata
     id="metadata937">
    <rdf:RDF>
      <cc:Work
         rdf:about="">
        <dc:title>logo</dc:title>
      </cc:Work>
    </rdf:RDF>
  </metadata>
</svg>
